<?xml version="1.0" encoding="utf-8"?>
<svg version="1.0" width="896" height="896" id="svg3215" xmlns="http://www.w3.org/2000/svg">
  <g>
    <path d="M 728.937 384.15 L 728.937 359.16 L 720 359.16 L 720 354.055 L 743.973 354.055 L 743.973 359.16 L 735.012 359.16 L 735.012 384.15 L 728.937 384.15 Z" style="fill:#231f20;fill-rule:nonzero;stroke:none;stroke-width:4.96799994;stroke-linecap:butt;stroke-linejoin:miter;stroke-miterlimit:3.86400008;stroke-dasharray:none" id="path136"/>
    <path d="M 747.843 384.15 L 747.843 354.055 L 757.038 354.055 L 762.457 374.592 L 767.805 354.055 L 777 354.055 L 777 384.15 L 771.37 384.15 L 771.324 360.465 L 765.389 384.15 L 759.478 384.15 L 753.52 360.465 L 753.473 384.15 L 747.843 384.15 Z" style="fill:#231f20;fill-rule:nonzero;stroke:none;stroke-width:4.96799994;stroke-linecap:butt;stroke-linejoin:miter;stroke-miterlimit:3.86400008;stroke-dasharray:none" id="path138"/>
    <path d="M 383.955 257.919 C 312.427 257.919 248.717 291.555 207.768 343.856 L 169.424 343.856 C 109.258 343.856 60.299 392.784 60.299 452.95 L 60.299 518.731 C 60.299 578.898 109.258 627.856 169.424 627.856 L 214.799 627.856 C 255.819 675.244 316.405 705.231 383.955 705.231 C 451.505 705.231 512.091 675.244 553.111 627.856 L 596.799 627.856 C 656.988 627.856 705.955 578.898 705.955 518.731 L 705.955 452.95 C 705.955 392.784 656.988 343.856 596.799 343.856 L 560.143 343.856 C 519.193 291.555 455.483 257.919 383.955 257.919 Z" style="fill:#000000;fill-rule:evenodd;stroke:none" id="path112"/>
    <path d="M 398.022 518.725 L 398.022 452.964 C 398.022 404.384 437.557 364.848 486.138 364.848 L 596.797 364.848 C 645.377 364.848 684.936 404.384 684.936 452.964 L 684.936 518.725 C 684.936 567.306 645.377 606.842 596.797 606.842 C 596.797 606.842 434.224 606.842 353.147 606.842 C 380.328 586.981 398.022 554.881 398.022 518.725 Z" style="fill:#ffffff;fill-rule:nonzero;stroke:none;stroke-width:4.96799994;stroke-linecap:butt;stroke-linejoin:miter;stroke-miterlimit:3.86400008;stroke-dasharray:none" id="path118"/>
    <path d="M 254.191 552.853 L 217.872 552.853 L 211.369 522.012 C 206.73 500.123 202.464 473.525 201.648 463.198 C 200.809 473.525 196.566 500.123 191.927 522.012 L 185.4 552.853 L 149.501 552.853 L 115.629 410.818 L 156.191 410.818 L 160.037 434.572 C 163.301 454.666 167.17 479.423 168.569 496.253 C 170.201 479.609 174.653 455.039 179.129 434.735 L 183.978 410.818 L 220.11 410.818 L 224.982 434.735 C 229.435 455.039 233.887 479.609 235.542 496.253 C 236.941 479.423 240.811 454.666 244.051 434.572 L 247.897 410.818 L 288.086 410.818 L 254.191 552.853 Z" style="fill:#ffffff;fill-rule:nonzero;stroke:none;stroke-width:4.96799994;stroke-linecap:butt;stroke-linejoin:miter;stroke-miterlimit:3.86400008;stroke-dasharray:none" id="path120"/>
    <path d="M 323.682 438.628 C 311.7 438.628 302.772 431.704 302.772 420.585 C 302.772 410.212 311.7 402.915 323.682 402.915 C 336.247 402.915 344.965 410.212 344.965 420.585 C 344.965 431.704 336.247 438.628 323.682 438.628 Z M 305.406 552.853 L 305.406 449.677 L 341.935 449.677 L 341.935 552.853 L 305.406 552.853 Z" style="fill:#ffffff;fill-rule:nonzero;stroke:none;stroke-width:4.96799994;stroke-linecap:butt;stroke-linejoin:miter;stroke-miterlimit:3.86400008;stroke-dasharray:none" id="path122"/>
    <path d="M 486.767 444.293 L 486.767 476.043 L 562.342 476.043 L 562.342 509.354 L 486.767 509.354 L 486.767 552.853 L 447.605 552.853 L 447.605 410.818 L 570.385 410.818 L 570.385 444.293 L 486.767 444.293 Z" style="fill:#000000;fill-rule:nonzero;stroke:none;stroke-width:4.96799994;stroke-linecap:butt;stroke-linejoin:miter;stroke-miterlimit:3.86400008;stroke-dasharray:none" id="path124"/>
    <path d="M 611.389 438.628 C 599.431 438.628 590.479 431.704 590.479 420.585 C 590.479 410.212 599.431 402.915 611.389 402.915 C 623.954 402.915 632.672 410.212 632.672 420.585 C 632.672 431.704 623.954 438.628 611.389 438.628 Z M 593.137 552.853 L 593.137 449.677 L 629.642 449.677 L 629.642 552.853 L 593.137 552.853 Z" style="fill:#000000;fill-rule:nonzero;stroke:none;stroke-width:4.96799994;stroke-linecap:butt;stroke-linejoin:miter;stroke-miterlimit:3.86400008;stroke-dasharray:none" id="path126"/>
  </g>
</svg>