<?xml version="1.0" encoding="utf-8"?>
<svg viewBox="326.4 166.4 115.2 113.067" xmlns="http://www.w3.org/2000/svg">
  <defs>
    <clipPath id="clippath4" transform="">
      <path d="M 13.913 29.06 L 23.693 1.89 L 35 5.829 L 25.221 33 Z" style="fill: none; clip-rule: nonzero;"/>
    </clipPath>
    <clipPath id="clippath5" transform="">
      <path d="M 1 25.171 L 10.06 0 L 16.52 0 L 22.087 1.939 L 12.307 29.111 Z" style="fill: none; clip-rule: nonzero;"/>
    </clipPath>
    <clipPath id="clippath3" transform="">
      <path d="M 37.913 1.939 L 43.481 0 L 49.941 0 L 59 25.171 L 47.693 29.111 Z" style="fill: none; clip-rule: nonzero;"/>
    </clipPath>
    <clipPath id="clippath2" transform="">
      <path d="M 25 5.829 L 36.308 1.89 L 46.087 29.06 L 34.78 33 Z" style="fill: none; clip-rule: nonzero;"/>
    </clipPath>
    <clipPath id="clippath1" transform="">
      <path d="M 0 0 L 60 0 L 60 60 L 0 60 Z" style="fill: none; clip-rule: nonzero;"/>
    </clipPath>
  </defs>
  <g transform="matrix(2.133333, 0, 0, -2.133333, 320, 287.999969)">
    <g style="clip-path: url(#clippath4);">
      <g transform="translate(21.416 5.2158)">
        <path d="M 0 0 L 0 0 C 2.616 0.912 3.985 3.737 3.059 6.311 L -0.966 17.496 C -1.893 20.069 -4.765 21.417 -7.38 20.506 C -11.566 19.048 -13.758 14.527 -12.275 10.409 L -10.263 4.816 C -8.78 0.698 -4.186 -1.458 0 0" style="fill-opacity: 1; fill: rgb(71, 113, 183);"/>
      </g>
    </g>
    <g style="clip-path: url(#clippath5);">
      <g transform="translate(21.416 5.2158)">
        <path d="M 0 0 L 0 0 C 2.616 0.912 3.985 3.737 3.059 6.311 L -0.966 17.496 C -1.893 20.069 -4.765 21.417 -7.38 20.506 C -11.566 19.048 -13.758 14.527 -12.275 10.409 L -10.263 4.816 C -8.78 0.698 -4.186 -1.458 0 0" style="fill-opacity: 1; fill: rgb(71, 113, 183);"/>
      </g>
    </g>
    <g style="clip-path: url(#clippath3);">
      <g transform="translate(38.584 5.2158)">
        <path d="M 0 0 L 0 0 C -2.616 0.912 -3.985 3.737 -3.06 6.311 L 0.967 17.496 C 1.893 20.069 4.765 21.417 7.381 20.506 C 11.566 19.048 13.758 14.527 12.275 10.409 L 10.263 4.816 C 8.78 0.698 4.186 -1.458 0 0" style="fill-opacity: 1; fill: rgb(71, 113, 183);"/>
      </g>
    </g>
    <g style="clip-path: url(#clippath2);">
      <g transform="translate(38.584 5.2158)">
        <path d="M 0 0 L 0 0 C -2.616 0.912 -3.985 3.737 -3.06 6.311 L 0.967 17.496 C 1.893 20.069 4.765 21.417 7.381 20.506 C 11.566 19.048 13.758 14.527 12.275 10.409 L 10.263 4.816 C 8.78 0.698 4.186 -1.458 0 0" style="fill-opacity: 1; fill: rgb(71, 113, 183);"/>
      </g>
    </g>
    <g style="clip-path: url(#clippath1);">
      <g transform="translate(31.2061 42.5923)">
        <path d="M 0 0 L 2.466 -2.48 L 0.001 -4.959 Z M 0 -15.184 L 2.466 -12.704 L 0.001 -10.226 Z M -2.633 -7.592 L -7.963 -2.216 L -6.418 -0.662 L -2.171 -4.935 L -2.171 5.306 L 5.552 -2.463 L 0.452 -7.592 L 5.552 -12.722 L -2.171 -20.491 L -2.171 -10.25 L -6.418 -14.523 L -7.963 -12.969 Z M -1.205 -22.592 C 5.307 -22.592 9.794 -19.481 9.794 -7.592 C 9.794 4.296 5.307 7.408 -1.205 7.408 C -7.716 7.408 -12.206 4.296 -12.206 -7.592 C -12.206 -19.481 -7.716 -22.592 -1.205 -22.592" style="fill-opacity: 1; fill: rgb(71, 113, 183);"/>
      </g>
    </g>
    <g style="clip-path: url(#clippath1);">
      <g transform="translate(8.0312 43.9814)">
        <path d="M 0 0 C -3.366 -4.946 -5.031 -11.345 -5.031 -18.216 C -5.031 -26.093 -1.687 -35.225 2.012 -39.407 C 2.227 -39.65 2.859 -39.998 3.182 -39.97 C 3.693 -39.925 4.539 -39.027 4.639 -38.524 C 4.662 -38.406 4.627 -38.179 4.55 -38.05 C 3.446 -36.219 1.858 -34.385 1.013 -31.964 C 0.417 -30.256 0.086 -28.571 -0.011 -26.99 C -1.121 -23.803 -1.69 -20.444 -1.69 -16.975 C -1.69 -11.577 -0.847 -5.897 2.54 -1.731 C 13.05 11.198 30.911 11.18 41.394 -1.732 C 44.793 -5.919 45.628 -11.59 45.628 -16.976 C 45.628 -20.444 45.06 -23.801 43.948 -26.99 C 43.851 -28.572 43.521 -30.256 42.925 -31.965 C 42.081 -34.384 39.456 -36.659 39.3 -38.526 C 39.257 -39.037 40.258 -40.094 40.756 -39.972 C 46.404 -38.593 48.969 -26.095 48.969 -18.218 C 48.968 -11.347 47.299 -4.952 43.938 -0.004 C 39.271 6.871 30.325 13.126 22.005 13.017 C 13.912 12.911 4.545 6.679 0 0" style="fill-opacity: 1; fill: rgb(71, 113, 183);"/>
      </g>
    </g>
  </g>
</svg>