<?xml version="1.0" encoding="utf-8"?>
<svg viewBox="222.265 147.519 60.988 120" xmlns="http://www.w3.org/2000/svg">
  <path stroke-width="2.75" stroke-linecap="round" stroke-linejoin="round" stroke-miterlimit="10" d="M 204.8 40.694 C 210.587 40.73 216.365 40.824 222.149 41.016 C 227.64 41.199 233.135 41.553 238.606 42.047 C 244.005 42.535 249.397 43.174 254.743 44.073 C 260.212 44.992 265.647 46.137 270.974 47.688 C 276.149 49.195 281.225 51.083 286.036 53.522 C 290.685 55.88 295.062 58.777 298.969 62.234 C 302.976 65.78 306.456 69.871 309.546 74.232 C 312.67 78.642 315.376 83.339 317.666 88.233 C 319.972 93.162 321.861 98.28 323.433 103.488 C 325.048 108.837 326.317 114.281 327.397 119.76 C 328.442 125.059 329.265 130.406 329.957 135.762 C 330.654 141.157 331.257 146.571 331.719 151.992 C 332.177 157.363 332.619 162.734 332.936 168.115 C 333.276 173.875 333.633 179.632 333.886 185.397 C 334.143 191.232 334.394 197.064 334.584 202.901 C 334.745 207.829 334.901 212.753 335.003 217.682 C 335.158 225.177 335.312 232.671 335.467 240.166 C 335.563 244.809 335.591 249.453 335.642 254.097 C 335.693 258.757 335.789 263.418 335.789 268.078 C 335.789 273.06 335.789 278.042 335.789 283.023 C 335.789 291.266 335.789 299.508 335.789 307.751 C 335.789 314.772 335.789 321.792 335.789 328.813 C 335.789 331.211 335.799 333.608 335.765 336.006 C 335.669 342.812 335.574 349.617 335.478 356.422 C 335.38 363.365 335.283 370.308 335.185 377.25 C 335.117 382.095 334.93 386.939 334.787 391.783 C 334.622 397.38 334.372 402.973 334.133 408.568 C 333.918 413.601 333.689 418.633 333.358 423.66 C 332.986 429.317 332.639 434.979 332.119 440.625 C 331.572 446.561 330.993 452.486 330.256 458.402 C 329.58 463.833 328.734 469.246 327.694 474.62 C 326.663 479.949 325.425 485.243 323.836 490.435 C 322.249 495.621 320.333 500.721 317.9 505.573 C 315.456 510.448 312.516 515.053 309.042 519.26 C 305.601 523.427 301.662 527.158 297.443 530.528 C 293.197 533.92 288.687 536.982 283.952 539.65 C 279.235 542.308 274.306 544.58 269.24 546.488 C 264.166 548.399 258.957 549.955 253.681 551.203 C 248.351 552.464 242.958 553.443 237.53 554.172 C 232.141 554.896 226.718 555.419 221.288 555.722 C 215.71 556.033 210.121 556.211 204.533 556.19 C 198.931 556.169 193.323 556.051 187.731 555.688 C 182.11 555.322 176.496 554.817 170.919 554.015 C 165.462 553.23 160.037 552.232 154.684 550.906 C 149.408 549.598 144.205 547.996 139.139 546.023 C 134.11 544.065 129.22 541.739 124.553 539.027 C 119.845 536.291 115.353 533.174 111.146 529.716 C 106.953 526.27 103.07 522.45 99.69 518.199 C 96.311 513.948 93.47 509.298 91.121 504.406 C 88.783 499.537 86.94 494.446 85.408 489.271 C 83.833 483.95 82.618 478.525 81.599 473.072 C 80.577 467.6 79.796 462.088 79.108 456.565 C 78.414 450.986 77.877 445.386 77.397 439.785 C 76.914 434.15 76.528 428.503 76.183 422.858 C 75.853 417.462 75.61 412.063 75.379 406.662 C 75.139 401.054 74.914 395.45 74.749 389.839 C 74.616 385.324 74.458 380.81 74.395 376.293 C 74.293 369.012 74.19 361.732 74.088 354.451 C 73.998 348.063 73.908 341.675 73.819 335.287 C 73.783 332.729 73.806 330.171 73.806 327.613 C 73.806 320.312 73.806 313.012 73.806 305.711 C 73.806 297.59 73.806 289.47 73.806 281.349 C 73.806 276.802 73.798 272.254 73.806 267.707 C 73.815 262.519 73.917 257.33 73.975 252.143 C 74.024 247.747 74.063 243.352 74.154 238.957 C 74.31 231.379 74.467 223.802 74.623 216.224 C 74.728 211.156 74.908 206.091 75.073 201.024 C 75.261 195.247 75.531 189.474 75.785 183.699 C 76.033 178.052 76.407 172.411 76.74 166.768 C 77.049 161.529 77.479 156.29 77.957 151.064 C 78.459 145.576 79.052 140.09 79.786 134.628 C 80.532 129.075 81.441 123.548 82.541 118.054 C 83.603 112.749 84.911 107.48 86.524 102.315 C 88.141 97.135 90.08 92.05 92.441 87.162 C 94.79 82.299 97.558 77.643 100.738 73.276 C 103.908 68.922 107.492 64.865 111.611 61.384 C 115.574 58.036 119.979 55.255 124.639 52.985 C 129.536 50.599 134.687 48.791 139.926 47.318 C 145.159 45.847 150.508 44.755 155.875 43.906 C 161.425 43.028 167.003 42.389 172.601 41.907 C 178.106 41.434 183.628 41.141 189.15 40.958 C 194.368 40.786 199.582 40.726 204.8 40.694 Z" style="paint-order: fill; fill: rgb(135, 160, 181);" transform="matrix(0.232785, 0, 0, 0.232785, 205.085999, 138.045563)"/>
  <path stroke-width="2.75" stroke-linecap="round" stroke-linejoin="round" stroke-miterlimit="10" d="M 206.371 417.166 C 211.66 417.521 216.165 413.047 217.641 408.281 C 218.04 406.992 218.238 405.638 218.174 404.288 C 218.15 403.793 218.228 403.68 217.748 403.668 C 217.437 403.66 217.097 403.744 216.793 403.804 C 216.163 403.927 215.545 404.109 214.944 404.334 C 212.505 405.25 210.316 406.859 208.785 408.973 C 207.1 411.299 205.998 414.267 206.371 417.166 Z" style="fill: rgb(255, 255, 255);" transform="matrix(-0.232785, 0, 0, -0.232785, 303.899558, 329.127905)"/>
  <path stroke-width="2.75" stroke-linecap="round" stroke-linejoin="round" stroke-miterlimit="10" d="M 222.457 434.815 C 222.446 430.262 224.921 426.028 228.799 423.652 C 225.929 419.499 220.653 417.197 215.635 417.894 C 213.422 418.201 211.386 419.115 209.312 419.892 C 208.151 420.327 207.063 420.669 205.825 420.388 C 204.573 420.103 203.374 419.539 202.181 419.081 C 199.621 418.098 197.103 417.696 194.404 418.297 C 191.803 418.877 189.406 420.223 187.511 422.091 C 184.663 424.898 183.155 428.719 182.714 432.644 C 182.281 436.5 182.787 440.44 183.826 444.162 C 184.998 448.36 186.873 452.27 189.389 455.825 C 191.013 458.12 192.868 460.698 195.528 461.834 C 198.139 462.949 200.634 461.804 203.07 460.825 C 205.618 459.8 208.427 459.584 211.052 460.464 C 213.453 461.269 215.571 462.582 218.214 462.159 C 221.07 461.702 223.124 459.386 224.76 457.177 C 226.127 455.331 227.395 453.416 228.427 451.361 C 228.905 450.41 229.337 449.436 229.721 448.444 C 229.871 448.056 230.321 447.28 230.28 446.86 C 230.251 446.567 230.047 446.569 229.723 446.409 C 229.369 446.234 229.024 446.04 228.688 445.832 C 225.942 444.136 223.823 441.515 222.95 438.389 C 222.622 437.225 222.469 436.021 222.457 434.815" style="fill: rgb(255, 255, 255);" transform="matrix(0.232785, 0, 0, 0.232785, 205.085999, 138.045563)"/>
</svg>